<svg
  xmlns="http://www.w3.org/2000/svg"
  viewBox="0 0 800 800"
  width="388.94202"
  height="390.87262"
>
  <defs>
    <linearGradient id="gradient1" x1="0" y1="0" x2="1" y2="1">
      <stop offset="0%" stop-color="#ffffff" />
      <stop offset="100%" stop-color="#000000" />
    </linearGradient>
  </defs>
  <g>
    <path
      d="M 520.45976,487.65963 L 368.91383,336.00195 L 217.3679,487.65963 L 217.3679,667.48073 C 217.3679,669.2256 217.73362,670.88558 218.37374,672.39814 C 219.01386,673.9107 219.91165,675.27717 221.05596,676.42149 C 222.20028,677.56579 223.56675,678.46359 225.07931,679.10371 C 226.59187,679.74384 228.25181,680.10955 229.99673,680.10955 L 368.91383,680.10955 L 507.83093,680.10955 C 509.57581,680.10955 511.23579,679.74384 512.74835,679.10371 C 514.26092,678.46359 515.62739,677.56579 516.77169,676.42149 C 517.91601,675.27717 518.8138,673.9107 519.45393,672.39814 C 520.09405,670.88558 520.45976,669.2256 520.45976,667.48073 L 520.45976,487.65963 z"
      fill="url(#gradient1)"
    />
    <path
      d="M 527.61237,441.83822 L 382.21321,296.21555 C 380.42256,294.42579 378.25488,293.01193 375.95468,292.08045 C 373.65447,291.14896 371.22173,290.69982 368.69031,290.73933 C 366.25566,290.77395 363.85129,291.26211 361.64946,292.1922 C 359.44764,293.1223 357.44841,294.49431 355.72621,296.21555 L 210.21529,441.83822 L 210.21529,494.81225 L 368.91383,336.00195 L 527.61237,494.81225 L 527.61237,441.83822 z"
      fill="#f2f2f2"
    />
    <path
      d="M 520.45976,434.68561 L 382.21321,296.21555 C 380.42256,294.42579 378.25488,293.01193 375.95468,292.08045 C 373.65447,291.14896 371.22173,290.69982 368.69031,290.73933 C 366.25566,290.77395 363.85129,291.26211 361.64946,292.1922 C 359.44764,293.1223 357.44841,294.49431 355.72621,296.21555 L 217.3679,434.68561 L 217.3679,487.65963 L 368.91383,336.00195 L 520.45976,487.65963 L 520.45976,434.68561 z"
      fill="#b3b3b3"
    />
  </g>
</svg>
